<mxfile host="app.diagrams.net" modified="2020-10-19T08:43:12.385Z" agent="5.0 (Windows NT 10.0; Win64; x64) AppleWebKit/537.36 (KHTML, like Gecko) Chrome/86.0.4240.75 Safari/537.36" etag="wtQBNgviOFwIU9CMOkOR" version="13.8.0" type="github">
  <diagram id="x2BrKd-wz-0o-DbK3ciT" name="Page-1">
    <mxGraphModel dx="767" dy="1307" grid="1" gridSize="10" guides="1" tooltips="1" connect="1" arrows="1" fold="1" page="1" pageScale="1" pageWidth="827" pageHeight="1169" math="0" shadow="0">
      <root>
        <mxCell id="0" />
        <mxCell id="1" parent="0" />
        <mxCell id="cxUGnxXR315sWSd6e-1E-1" value="상품정보" style="whiteSpace=wrap;html=1;aspect=fixed;" vertex="1" parent="1">
          <mxGeometry x="960" y="800" width="120" height="120" as="geometry" />
        </mxCell>
        <mxCell id="cxUGnxXR315sWSd6e-1E-2" value="남은수량" style="ellipse;whiteSpace=wrap;html=1;aspect=fixed;" vertex="1" parent="1">
          <mxGeometry x="1161" y="1040" width="80" height="80" as="geometry" />
        </mxCell>
        <mxCell id="cxUGnxXR315sWSd6e-1E-3" value="설명" style="ellipse;whiteSpace=wrap;html=1;aspect=fixed;" vertex="1" parent="1">
          <mxGeometry x="1161" y="960" width="80" height="80" as="geometry" />
        </mxCell>
        <mxCell id="cxUGnxXR315sWSd6e-1E-4" value="가격" style="ellipse;whiteSpace=wrap;html=1;aspect=fixed;" vertex="1" parent="1">
          <mxGeometry x="1161" y="880" width="80" height="80" as="geometry" />
        </mxCell>
        <mxCell id="cxUGnxXR315sWSd6e-1E-5" value="상품명" style="ellipse;whiteSpace=wrap;html=1;aspect=fixed;" vertex="1" parent="1">
          <mxGeometry x="1161" y="800" width="80" height="80" as="geometry" />
        </mxCell>
        <mxCell id="cxUGnxXR315sWSd6e-1E-9" value="" style="endArrow=none;html=1;" edge="1" parent="1">
          <mxGeometry width="50" height="50" relative="1" as="geometry">
            <mxPoint x="1261" y="1110" as="sourcePoint" />
            <mxPoint x="1261" y="1110" as="targetPoint" />
          </mxGeometry>
        </mxCell>
        <mxCell id="cxUGnxXR315sWSd6e-1E-12" value="회원정보" style="whiteSpace=wrap;html=1;aspect=fixed;" vertex="1" parent="1">
          <mxGeometry x="520" y="160" width="120" height="120" as="geometry" />
        </mxCell>
        <mxCell id="cxUGnxXR315sWSd6e-1E-13" value="이름" style="ellipse;whiteSpace=wrap;html=1;aspect=fixed;" vertex="1" parent="1">
          <mxGeometry x="320" y="320" width="80" height="80" as="geometry" />
        </mxCell>
        <mxCell id="cxUGnxXR315sWSd6e-1E-14" value="배송메세지" style="ellipse;whiteSpace=wrap;html=1;aspect=fixed;" vertex="1" parent="1">
          <mxGeometry x="320" y="240" width="80" height="80" as="geometry" />
        </mxCell>
        <mxCell id="cxUGnxXR315sWSd6e-1E-15" value="주소" style="ellipse;whiteSpace=wrap;html=1;aspect=fixed;" vertex="1" parent="1">
          <mxGeometry x="320" y="160" width="80" height="80" as="geometry" />
        </mxCell>
        <mxCell id="cxUGnxXR315sWSd6e-1E-16" value="연락처" style="ellipse;whiteSpace=wrap;html=1;aspect=fixed;" vertex="1" parent="1">
          <mxGeometry x="320" y="80" width="80" height="80" as="geometry" />
        </mxCell>
        <mxCell id="cxUGnxXR315sWSd6e-1E-22" value="주문하기" style="whiteSpace=wrap;html=1;aspect=fixed;" vertex="1" parent="1">
          <mxGeometry x="520" y="440" width="120" height="120" as="geometry" />
        </mxCell>
        <mxCell id="cxUGnxXR315sWSd6e-1E-26" value="장바구니" style="whiteSpace=wrap;html=1;aspect=fixed;strokeWidth=1;fontSize=12;fontColor=#000000;" vertex="1" parent="1">
          <mxGeometry x="520" y="800" width="120" height="120" as="geometry" />
        </mxCell>
        <mxCell id="cxUGnxXR315sWSd6e-1E-27" value="담기" style="rhombus;whiteSpace=wrap;html=1;strokeWidth=1;fontSize=12;fontColor=#000000;" vertex="1" parent="1">
          <mxGeometry x="760" y="820" width="80" height="80" as="geometry" />
        </mxCell>
        <mxCell id="cxUGnxXR315sWSd6e-1E-28" value="배송지" style="rhombus;whiteSpace=wrap;html=1;strokeWidth=1;fontSize=12;fontColor=#000000;" vertex="1" parent="1">
          <mxGeometry x="540" y="320" width="80" height="80" as="geometry" />
        </mxCell>
        <mxCell id="cxUGnxXR315sWSd6e-1E-29" value="주문할 상품" style="rhombus;whiteSpace=wrap;html=1;strokeWidth=1;fontSize=12;fontColor=#000000;" vertex="1" parent="1">
          <mxGeometry x="540" y="640" width="80" height="80" as="geometry" />
        </mxCell>
        <mxCell id="cxUGnxXR315sWSd6e-1E-31" value="주문 리스트" style="whiteSpace=wrap;html=1;aspect=fixed;strokeWidth=1;fontSize=12;fontColor=#000000;" vertex="1" parent="1">
          <mxGeometry x="960" y="440" width="120" height="120" as="geometry" />
        </mxCell>
        <mxCell id="cxUGnxXR315sWSd6e-1E-35" value="" style="endArrow=ERone;html=1;strokeWidth=1;fontSize=12;fontColor=#000000;exitX=0.5;exitY=0;exitDx=0;exitDy=0;startArrow=none;startFill=0;endFill=0;" edge="1" parent="1" source="cxUGnxXR315sWSd6e-1E-28">
          <mxGeometry width="50" height="50" relative="1" as="geometry">
            <mxPoint x="530" y="330" as="sourcePoint" />
            <mxPoint x="580" y="280" as="targetPoint" />
          </mxGeometry>
        </mxCell>
        <mxCell id="cxUGnxXR315sWSd6e-1E-41" value="" style="endArrow=none;html=1;strokeWidth=1;fontSize=12;fontColor=#000000;exitX=0.5;exitY=0;exitDx=0;exitDy=0;startArrow=ERone;startFill=0;" edge="1" parent="1" source="cxUGnxXR315sWSd6e-1E-22">
          <mxGeometry width="50" height="50" relative="1" as="geometry">
            <mxPoint x="530" y="450" as="sourcePoint" />
            <mxPoint x="580" y="400" as="targetPoint" />
          </mxGeometry>
        </mxCell>
        <mxCell id="cxUGnxXR315sWSd6e-1E-42" value="번호" style="ellipse;whiteSpace=wrap;html=1;aspect=fixed;strokeWidth=1;fontSize=12;fontColor=#000000;" vertex="1" parent="1">
          <mxGeometry x="360" y="720" width="80" height="80" as="geometry" />
        </mxCell>
        <mxCell id="cxUGnxXR315sWSd6e-1E-43" value="상품명" style="ellipse;whiteSpace=wrap;html=1;aspect=fixed;strokeWidth=1;fontSize=12;fontColor=#000000;" vertex="1" parent="1">
          <mxGeometry x="360" y="800" width="80" height="80" as="geometry" />
        </mxCell>
        <mxCell id="cxUGnxXR315sWSd6e-1E-44" value="수량" style="ellipse;whiteSpace=wrap;html=1;aspect=fixed;strokeWidth=1;fontSize=12;fontColor=#000000;" vertex="1" parent="1">
          <mxGeometry x="360" y="880" width="80" height="80" as="geometry" />
        </mxCell>
        <mxCell id="cxUGnxXR315sWSd6e-1E-45" value="가격" style="ellipse;whiteSpace=wrap;html=1;aspect=fixed;strokeWidth=1;fontSize=12;fontColor=#000000;" vertex="1" parent="1">
          <mxGeometry x="360" y="960" width="80" height="80" as="geometry" />
        </mxCell>
        <mxCell id="cxUGnxXR315sWSd6e-1E-46" value="" style="endArrow=none;html=1;strokeWidth=1;fontSize=12;fontColor=#000000;entryX=0.5;entryY=1;entryDx=0;entryDy=0;exitX=0.5;exitY=0;exitDx=0;exitDy=0;" edge="1" parent="1" source="cxUGnxXR315sWSd6e-1E-29" target="cxUGnxXR315sWSd6e-1E-22">
          <mxGeometry width="50" height="50" relative="1" as="geometry">
            <mxPoint x="730" y="570" as="sourcePoint" />
            <mxPoint x="780" y="520" as="targetPoint" />
          </mxGeometry>
        </mxCell>
        <mxCell id="cxUGnxXR315sWSd6e-1E-47" value="" style="endArrow=none;html=1;strokeWidth=1;fontSize=12;fontColor=#000000;entryX=0.5;entryY=0;entryDx=0;entryDy=0;exitX=0.5;exitY=1;exitDx=0;exitDy=0;" edge="1" parent="1" source="cxUGnxXR315sWSd6e-1E-29" target="cxUGnxXR315sWSd6e-1E-26">
          <mxGeometry width="50" height="50" relative="1" as="geometry">
            <mxPoint x="730" y="570" as="sourcePoint" />
            <mxPoint x="780" y="520" as="targetPoint" />
          </mxGeometry>
        </mxCell>
        <mxCell id="cxUGnxXR315sWSd6e-1E-48" value="" style="endArrow=none;html=1;strokeWidth=1;fontSize=12;fontColor=#000000;entryX=0;entryY=0.5;entryDx=0;entryDy=0;exitX=1;exitY=0.5;exitDx=0;exitDy=0;" edge="1" parent="1" source="cxUGnxXR315sWSd6e-1E-27" target="cxUGnxXR315sWSd6e-1E-1">
          <mxGeometry width="50" height="50" relative="1" as="geometry">
            <mxPoint x="880" y="860" as="sourcePoint" />
            <mxPoint x="930" y="810" as="targetPoint" />
          </mxGeometry>
        </mxCell>
        <mxCell id="cxUGnxXR315sWSd6e-1E-49" value="" style="endArrow=none;html=1;strokeWidth=1;fontSize=12;fontColor=#000000;entryX=0;entryY=0.5;entryDx=0;entryDy=0;" edge="1" parent="1" source="cxUGnxXR315sWSd6e-1E-26" target="cxUGnxXR315sWSd6e-1E-27">
          <mxGeometry width="50" height="50" relative="1" as="geometry">
            <mxPoint x="730" y="740" as="sourcePoint" />
            <mxPoint x="780" y="690" as="targetPoint" />
          </mxGeometry>
        </mxCell>
        <mxCell id="cxUGnxXR315sWSd6e-1E-55" value="저장" style="rhombus;whiteSpace=wrap;html=1;strokeWidth=1;fontSize=12;fontColor=#000000;" vertex="1" parent="1">
          <mxGeometry x="760" y="460" width="80" height="80" as="geometry" />
        </mxCell>
        <mxCell id="cxUGnxXR315sWSd6e-1E-57" value="주문상세내역" style="whiteSpace=wrap;html=1;aspect=fixed;strokeWidth=1;fontSize=12;fontColor=#000000;" vertex="1" parent="1">
          <mxGeometry x="1480" y="520" width="120" height="120" as="geometry" />
        </mxCell>
        <mxCell id="cxUGnxXR315sWSd6e-1E-58" value="조회" style="rhombus;whiteSpace=wrap;html=1;strokeWidth=1;fontSize=12;fontColor=#000000;" vertex="1" parent="1">
          <mxGeometry x="1320" y="560" width="80" height="80" as="geometry" />
        </mxCell>
        <mxCell id="cxUGnxXR315sWSd6e-1E-59" value="주문번호" style="ellipse;whiteSpace=wrap;html=1;aspect=fixed;strokeWidth=1;fontSize=12;fontColor=#000000;" vertex="1" parent="1">
          <mxGeometry x="1161" y="240" width="80" height="80" as="geometry" />
        </mxCell>
        <mxCell id="cxUGnxXR315sWSd6e-1E-60" value="결제금액" style="ellipse;whiteSpace=wrap;html=1;aspect=fixed;strokeWidth=1;fontSize=12;fontColor=#000000;" vertex="1" parent="1">
          <mxGeometry x="1161" y="480" width="80" height="80" as="geometry" />
        </mxCell>
        <mxCell id="cxUGnxXR315sWSd6e-1E-61" value="상품명" style="ellipse;whiteSpace=wrap;html=1;aspect=fixed;strokeWidth=1;fontSize=12;fontColor=#000000;" vertex="1" parent="1">
          <mxGeometry x="1161" y="400" width="80" height="80" as="geometry" />
        </mxCell>
        <mxCell id="cxUGnxXR315sWSd6e-1E-62" value="주문일자" style="ellipse;whiteSpace=wrap;html=1;aspect=fixed;strokeWidth=1;fontSize=12;fontColor=#000000;" vertex="1" parent="1">
          <mxGeometry x="1161" y="320" width="80" height="80" as="geometry" />
        </mxCell>
        <mxCell id="cxUGnxXR315sWSd6e-1E-63" value="주문상세" style="ellipse;whiteSpace=wrap;html=1;aspect=fixed;strokeWidth=1;fontSize=12;fontColor=#000000;" vertex="1" parent="1">
          <mxGeometry x="1161" y="560" width="80" height="80" as="geometry" />
        </mxCell>
        <mxCell id="cxUGnxXR315sWSd6e-1E-64" value="주문상품&lt;br&gt;정보" style="ellipse;whiteSpace=wrap;html=1;aspect=fixed;strokeWidth=1;fontSize=12;fontColor=#000000;" vertex="1" parent="1">
          <mxGeometry x="1680" y="600" width="80" height="80" as="geometry" />
        </mxCell>
        <mxCell id="cxUGnxXR315sWSd6e-1E-65" value="배송지정보" style="ellipse;whiteSpace=wrap;html=1;aspect=fixed;strokeWidth=1;fontSize=12;fontColor=#000000;" vertex="1" parent="1">
          <mxGeometry x="1680" y="520" width="80" height="80" as="geometry" />
        </mxCell>
        <mxCell id="cxUGnxXR315sWSd6e-1E-66" value="주문자정보" style="ellipse;whiteSpace=wrap;html=1;aspect=fixed;strokeWidth=1;fontSize=12;fontColor=#000000;" vertex="1" parent="1">
          <mxGeometry x="1680" y="440" width="80" height="80" as="geometry" />
        </mxCell>
      </root>
    </mxGraphModel>
  </diagram>
</mxfile>
